<?xml version="1.0" standalone="no"?>
<!DOCTYPE svg PUBLIC "-//W3C//DTD SVG 20010904//EN"
 "http://www.w3.org/TR/2001/REC-SVG-20010904/DTD/svg10.dtd">
<!-- <svg version="1.0" xmlns="http://www.w3.org/2000/svg"
 width="10240.000000pt" height="10240.000000pt" viewBox="0 0 1024.000000 1024.000000"
 preserveAspectRatio="xMidYMid meet" style="background: #fff"> -->
 <svg version="1.0" xmlns="http://www.w3.org/2000/svg"
 width="100%" height="100%" viewBox="100 100 800 800"
 preserveAspectRatio="xMidYMid meet" style="background: #fff">

<!-- <g transform="translate(0.000000,1024.000000) scale(0.100000,-0.100000)"
 -->
<g transform="translate(-55.12,1089.12) scale(0.110000,-0.110000)"
fill="#FFF" stroke="none">
<rect x="0" y="0" width="1024" height="1024" stroke="red" fill="none"/>

<path fill="#1B4054" d="M4960 8740 c-69 -20 -278 -99 -525 -200 -82 -33 -267 -102 -410 -152
-523 -183 -1141 -426 -1400 -552 -133 -64 -190 -110 -218 -174 -17 -40 -11
-971 9 -1212 28 -347 101 -686 216 -1001 129 -355 424 -865 687 -1189 221
-271 517 -546 786 -729 110 -75 356 -221 450 -269 79 -39 306 -131 423 -171
l93 -32 82 21 c261 68 674 276 983 496 454 321 887 840 1247 1489 102 185 181
386 263 668 63 217 96 368 118 542 25 202 27 286 28 834 0 510 -1 530 -20 568
-44 86 -110 123 -457 259 -93 36 -264 103 -380 149 -250 98 -376 145 -715 265
-465 165 -514 183 -665 242 -82 33 -199 78 -260 100 -212 77 -226 79 -335 48z
m244 -149 c62 -31 147 -117 180 -183 20 -39 26 -67 26 -115 0 -48 3 -63 14
-63 8 0 81 -21 163 -46 81 -25 193 -59 248 -76 92 -29 479 -163 740 -257 194
-70 736 -290 799 -324 l61 -34 0 -406 c0 -223 -3 -408 -7 -412 -11 -11 -288
67 -518 147 -187 65 -477 216 -645 336 -234 168 -348 264 -535 451 -200 200
-288 301 -354 404 -21 32 -44 61 -51 64 -8 2 -28 -5 -44 -16 -41 -30 -93 -50
-156 -62 -47 -9 -62 -7 -127 16 -40 14 -92 39 -116 56 -24 17 -45 30 -46 28
-2 -2 -20 -35 -39 -74 -73 -145 -324 -421 -582 -641 -70 -60 -226 -177 -341
-257 -219 -151 -549 -302 -894 -407 -74 -22 -156 -49 -182 -59 -47 -19 -47
-19 -54 2 -3 11 -3 200 1 419 8 451 4 427 93 472 51 26 235 103 377 159 50 19
155 61 235 92 80 32 181 70 225 86 44 15 170 60 280 100 270 97 741 249 771
249 23 0 24 3 24 63 0 52 6 74 38 137 32 64 46 80 99 116 34 24 82 47 105 53
69 16 157 8 212 -18z m-299 -1575 c0 -459 4 -838 8 -843 5 -4 83 -8 173 -8
134 0 165 3 169 14 7 19 6 1651 -1 1662 -3 5 -1 9 5 9 6 0 37 -36 69 -79 77
-106 241 -289 291 -326 l41 -30 0 -603 c0 -396 4 -610 10 -623 9 -16 22 -19
73 -19 36 0 68 5 75 12 9 9 12 143 12 541 l0 529 63 -57 c34 -31 125 -99 203
-152 l141 -94 -5 -338 c-3 -186 -2 -359 2 -384 l7 -45 49 -7 c27 -4 62 -4 78
0 l29 6 5 320 c3 176 7 322 10 324 2 2 44 -16 94 -41 49 -24 137 -63 196 -86
l108 -42 2 -240 3 -241 50 -3 c27 -2 65 -1 82 3 l33 6 0 153 c0 84 3 174 6
200 6 43 9 47 28 41 12 -4 82 -22 156 -41 108 -26 146 -32 192 -27 48 5 59 3
64 -10 14 -39 -17 -286 -62 -481 -105 -459 -221 -735 -486 -1154 -249 -394
-661 -833 -987 -1051 -268 -180 -645 -370 -784 -396 -88 -17 -512 179 -762
353 -164 113 -375 291 -524 442 -502 507 -861 1150 -991 1775 -18 88 -52 322
-65 453 l-6 62 65 0 c45 0 106 12 208 41 78 23 151 45 160 50 16 9 18 -5 20
-203 l3 -213 72 1 c40 1 80 4 88 8 14 5 16 37 15 242 l-1 236 118 54 c65 30
149 72 187 94 38 22 72 38 75 34 3 -3 6 -141 7 -307 1 -166 2 -317 3 -334 l1
-33 69 0 c112 0 101 -43 101 404 l0 391 63 40 c90 58 246 177 286 219 19 19
38 33 43 30 4 -3 8 -245 8 -539 0 -477 2 -534 16 -539 19 -7 102 -8 129 0 20
5 20 12 17 615 l-3 609 58 54 c40 38 338 386 338 395 0 1 0 -374 0 -833z"/>
<path fill="#accfe7" d="M5005 8455 c-22 -8 -56 -32 -77 -55 -82 -91 -54 -221 62 -284 71 -39
139 -34 198 13 82 64 104 148 62 230 -47 92 -146 131 -245 96z"/>
<!-- <path fill="#accfe7" d="M3746 7610 c-69 -83 -24 -210 74 -210 71 0 123 96 89 163 -42 81
-116 103 -163 47z"/>
<path d="M6356 7599 c-59 -47 -72 -118 -30 -168 21 -25 33 -31 66 -31 55 0
108 51 108 104 0 96 -78 147 -144 95z"/> -->
<!-- <path fill="#accfe7" d="M3145 7446 c-90 -39 -141 -175 -102 -269 35 -82 113 -137 195 -137
135 0 236 174 173 298 -52 100 -172 149 -266 108z m163 -78 c12 -12 17 -70 6
-81 -10 -10 -66 62 -60 78 7 18 37 20 54 3z"/>
<path fill="#accfe7" d="M6930 7449 c-102 -19 -170 -101 -170 -204 1 -160 138 -258 276 -196
146 66 166 298 32 378 -42 26 -82 32 -138 22z m108 -81 c7 -7 12 -29 12 -50 0
-48 -19 -50 -61 -8 -25 25 -28 33 -19 50 12 22 49 27 68 8z"/> -->
<path fill="#accfe7" d="M3948 6060 l-996 -5 33 -131 c19 -73 41 -148 49 -168 l15 -36 811 0
811 0 56 41 c98 73 216 109 357 109 137 0 262 -40 367 -116 l46 -33 825 -3
826 -3 20 70 c11 39 29 99 40 135 11 36 22 83 26 105 l7 40 -1148 0 c-631 0
-1597 -2 -2145 -5z"/>
<path fill="#eb9929" d="M4978 5704 c-82 -19 -153 -58 -208 -113 -53 -53 -78 -113 -86 -206
-3 -33 -7 -75 -10 -92 l-5 -33 -99 0 c-91 0 -99 -2 -105 -21 -4 -11 -7 -105
-8 -207 0 -171 2 -195 26 -285 70 -263 239 -443 486 -517 55 -17 88 -21 135
-18 82 7 212 59 287 115 108 82 228 254 277 398 26 77 27 88 27 280 0 110 -4
212 -8 228 l-7 27 -99 0 -98 0 -5 93 c-6 115 -35 185 -105 255 -99 98 -243
133 -395 96z m209 -184 c59 -26 80 -45 104 -93 22 -41 41 -130 34 -150 -6 -14
-259 -22 -407 -11 l-88 6 0 42 c1 44 25 119 50 152 57 77 199 102 307 54z
m-34 -555 c74 -52 76 -157 4 -215 -18 -15 -18 -17 2 -63 11 -26 27 -72 35
-102 l14 -55 -124 0 c-143 0 -141 -2 -101 98 40 99 41 104 2 140 -56 53 -58
126 -6 176 48 46 125 55 174 21z"/>
<path fill="#accfe7" d="M5683 5573 c-25 -3 -44 -10 -47 -19 -8 -21 3 -37 20 -30 8 3 14 1 14
-4 0 -6 -4 -10 -10 -10 -5 0 -7 -7 -4 -15 4 -8 13 -15 21 -15 8 0 12 -4 9 -9
-4 -5 4 -7 16 -3 17 4 20 2 15 -12 -5 -11 2 -26 18 -42 13 -13 25 -28 26 -32
1 -4 5 -16 9 -28 8 -20 17 -21 296 -27 361 -9 613 -9 775 -1 l125 7 22 31 c11
17 37 54 56 81 36 52 43 83 26 115 -10 18 -36 19 -677 18 -368 -1 -687 -3
-710 -5z m61 -149 c3 -8 2 -12 -4 -9 -6 3 -10 10 -10 16 0 14 7 11 14 -7z"/>
<path fill="#accfe7" d="M3146 5548 c-23 -32 -20 -53 14 -117 60 -111 0 -99 536 -101 643 -2
686 -2 679 10 -3 6 1 10 9 10 9 0 16 6 16 13 0 7 9 18 20 25 19 11 19 15 6 33
-7 11 -12 29 -9 40 4 14 0 19 -16 19 -14 0 -21 6 -21 19 0 11 -9 23 -20 26
-29 9 -25 25 8 26 15 1 38 5 52 9 14 4 -264 8 -617 9 l-642 1 -15 -22z"/>
<path fill="#accfe7" d="M4533 5563 c22 -6 22 -21 0 -47 -16 -19 -15 -19 6 1 26 24 23 54 -6
52 -17 -1 -17 -2 0 -6z"/>
<path fill="#accfe7" d="M3320 5161 c-5 -11 -10 -28 -10 -39 0 -22 64 -121 108 -167 l28 -30
167 0 c183 1 190 3 224 70 24 44 23 138 -1 164 -18 20 -28 21 -262 21 -230 0
-244 -1 -254 -19z"/>
<path fill="#accfe7" d="M4029 5151 c-25 -25 -29 -37 -29 -85 0 -50 3 -59 38 -96 l39 -40 111
0 112 0 0 73 c0 39 5 90 10 112 14 58 0 65 -138 65 -112 0 -114 0 -143 -29z"/>
<path fill="#accfe7" d="M5863 5113 c4 -38 7 -92 7 -120 l0 -53 91 0 c108 0 141 15 178 80 27
48 25 108 -5 141 -15 17 -32 19 -147 19 l-130 0 6 -67z"/>
<path fill="#accfe7" d="M6331 5161 c-41 -41 -39 -156 5 -196 33 -31 62 -35 248 -35 l162 0
60 82 c86 119 89 126 68 149 -16 18 -34 19 -271 19 -235 0 -254 -1 -272 -19z"/>
<path fill="#accfe7" d="M3700 4781 c-91 -6 -95 -7 -104 -32 -15 -43 2 -81 68 -146 l63 -63
225 0 c124 0 273 3 332 7 92 5 107 8 102 22 -44 132 -76 206 -92 212 -21 9
-449 8 -594 0z"/>
<path fill="#accfe7" d="M5850 4780 c0 -6 -16 -51 -35 -100 -50 -128 -50 -126 42 -134 42 -3
194 -6 339 -6 l262 0 81 86 c85 91 96 117 63 147 -17 15 -58 17 -385 17 -243
0 -367 -3 -367 -10z"/>
<path fill="#accfe7" d="M5663 4367 c-31 -45 -129 -123 -173 -138 -37 -13 -38 -23 -3 -46 24
-16 60 -18 311 -21 l284 -4 53 37 c74 50 145 128 145 158 0 47 -11 49 -310 51
l-281 1 -26 -38z"/>
<path fill="#accfe7" d="M3916 4384 c-27 -26 -18 -50 40 -113 102 -110 84 -106 419 -106 347
0 356 2 269 66 -32 24 -87 72 -121 107 l-62 62 -265 0 c-227 0 -267 -2 -280
-16z"/>
<path fill="#accfe7" d="M4946 4044 c-48 -27 -131 -32 -339 -22 -357 18 -371 1 -139 -164
l114 -81 56 6 c32 3 104 11 162 18 101 11 347 9 670 -7 l125 -6 105 67 c120
77 176 126 167 148 -9 24 -109 30 -351 23 -193 -6 -228 -5 -276 10 -78 25
-255 29 -294 8z"/>
<path fill="#accfe7" d="M4900 3663 c-19 -2 -42 -6 -50 -9 -26 -9 21 -38 127 -79 91 -36 100
-37 142 -26 69 18 191 78 191 94 0 10 -21 16 -82 20 -85 7 -265 7 -328 0z"/>
<!-- <path fill="#1B4054" d="M2712 4709 c-133 -22 -268 -135 -312 -262 -51 -147 -47 -252 15 -382
49 -102 102 -157 193 -202 71 -36 82 -38 166 -38 80 1 98 4 151 30 82 41 163
124 206 210 30 62 34 79 33 143 -1 41 -6 78 -13 85 -6 6 -33 11 -60 11 -48 1
-49 2 -55 34 -5 36 -43 137 -82 223 -32 69 -107 149 -139 149 -13 0 -29 2 -37
4 -7 2 -37 0 -66 -5z m-54 -131 c-13 -24 -31 -44 -41 -46 -23 -5 -57 25 -51
43 7 17 63 44 92 45 l23 0 -23 -42z m208 -3 c14 -25 23 -52 20 -60 -8 -23 -53
-19 -61 5 -6 20 2 100 10 100 2 0 16 -20 31 -45z m-108 -38 c-3 -40 -5 -42
-36 -45 -31 -3 -33 -2 -27 20 4 13 17 40 28 61 17 30 23 34 30 22 4 -8 7 -34
5 -58z m-180 -72 c9 -8 -20 -150 -32 -157 -6 -4 -28 -8 -50 -8 l-39 0 7 47 c3
26 16 67 27 91 20 41 24 44 52 38 17 -3 33 -8 35 -11z m361 -76 c19 -85 17
-89 -33 -89 -70 0 -76 5 -76 65 0 30 5 57 12 61 15 10 71 22 80 17 3 -2 11
-26 17 -54z m-220 45 c30 -6 31 -7 31 -65 0 -58 -1 -59 -27 -59 -16 0 -45 -3
-66 -6 -29 -5 -36 -4 -33 7 3 8 10 40 16 72 12 61 16 63 79 51z m241 -204 c0
-5 -5 -32 -11 -60 l-11 -50 -55 0 -56 0 5 51 c3 28 12 55 19 60 19 12 109 11
109 -1z m140 0 c0 -13 -26 -111 -39 -142 -12 -31 -18 -33 -44 -13 -18 13 -18
16 -3 68 9 30 16 65 16 76 0 17 6 21 35 21 19 0 35 -4 35 -10z m-546 -43 c4
-23 13 -55 21 -71 9 -16 14 -30 13 -30 -16 -9 -61 -26 -68 -26 -24 0 -70 135
-55 159 3 6 23 11 44 11 38 0 39 -1 45 -43z m194 -9 l-3 -53 -43 -3 c-46 -3
-51 3 -65 76 l-6 32 60 0 60 0 -3 -52z m22 -184 c0 -79 -14 -81 -42 -5 -21 57
-17 70 25 71 14 0 17 -10 17 -66z m126 45 c8 -14 -45 -116 -64 -124 -12 -4
-14 3 -8 41 3 26 6 57 6 70 0 20 5 24 29 24 17 0 33 -5 37 -11z m-240 -64 c12
-30 19 -55 16 -55 -9 0 -92 71 -92 79 0 7 36 29 50 30 3 0 15 -24 26 -54z
m324 6 c-12 -23 -29 -35 -36 -28 -10 9 16 47 32 47 11 0 12 -4 4 -19z"/>
<path fill="#1B4054" d="M7260 4625 c-52 -49 -105 -105 -117 -126 -12 -21 -33 -53 -46 -71
-14 -18 -39 -61 -56 -96 -30 -59 -31 -65 -21 -125 5 -35 27 -97 50 -144 48
-98 103 -150 210 -202 70 -33 82 -36 165 -35 75 0 99 4 145 26 108 50 199 154
239 275 55 165 -2 389 -124 486 -85 68 -146 91 -255 95 l-95 4 -95 -87z m275
-65 c14 -27 25 -52 25 -55 0 -3 -21 -5 -46 -5 l-46 0 7 43 c14 92 21 94 60 17z
m105 18 c21 -20 21 -22 4 -31 -14 -8 -22 -4 -41 17 -13 15 -23 31 -23 36 0 13
36 0 60 -22z m-236 0 c17 -64 -1 -98 -53 -98 -29 0 -27 36 4 83 30 43 40 46
49 15z m-99 -48 c-3 -5 -12 -10 -20 -10 -8 0 -17 5 -20 10 -4 6 5 10 20 10 15
0 24 -4 20 -10z m420 -67 c9 -21 22 -64 30 -95 l13 -58 -42 0 -42 0 -16 68
-16 67 26 28 c14 15 27 27 29 27 1 0 10 -17 18 -37z m-513 5 c13 -11 15 -26
11 -85 l-6 -73 -54 0 c-30 0 -53 4 -51 8 27 67 73 162 78 162 3 0 13 -6 22
-12z m192 -50 c3 -13 6 -40 6 -60 0 -39 4 -37 -91 -53 l-36 -5 8 47 c13 82 16
85 90 92 10 0 19 -9 23 -21z m185 0 c4 -13 11 -44 14 -70 7 -54 9 -53 -77 -42
-44 6 -46 8 -46 40 0 45 15 81 37 87 43 11 64 7 72 -15z m-195 -210 c3 -13 6
-38 6 -55 0 -33 0 -33 -50 -33 -54 0 -54 0 -63 78 l-4 32 53 0 c45 0 52 -3 58
-22z m208 -32 l-4 -55 -55 -7 c-30 -3 -58 -3 -62 2 -4 5 -6 33 -3 62 l4 52 61
0 62 0 -3 -54z m151 48 c12 -4 11 -16 -10 -72 -34 -89 -43 -98 -73 -74 l-23
18 22 67 c19 57 26 67 46 67 13 0 30 -3 38 -6z m-543 -24 c0 -10 9 -41 19 -69
l20 -49 -29 -12 c-16 -7 -34 -9 -40 -5 -16 10 -48 77 -55 118 l-7 37 46 0 c39
0 46 -3 46 -20z m200 -216 c0 -35 -4 -64 -10 -64 -10 0 -64 97 -65 115 0 10
54 24 68 18 4 -2 7 -33 7 -69z m139 50 c6 -6 -46 -98 -57 -102 -18 -6 -31 95
-15 112 7 6 63 -1 72 -10z m-254 -58 l14 -46 -39 22 c-45 26 -49 40 -18 62 26
19 26 19 43 -38z m345 15 c0 -16 -37 -41 -60 -41 -12 0 -2 30 17 52 18 20 43
13 43 -11z"/> -->
<!-- <path fill="#accfe7" d="M6692 3584 c-24 -17 -62 -83 -62 -109 0 -51 68 -115 123 -115 60 0
117 54 117 110 0 89 -112 161 -178 114z"/> -->
<!-- <path fill="#accfe7" d="M3402 3574 c-31 -21 -52 -66 -52 -110 0 -53 53 -104 108 -104 102 0
146 121 73 199 -23 24 -37 31 -68 31 -21 0 -49 -7 -61 -16z"/> -->
<path fill="#eb9929" d="M3600 2706 c-123 -36 -225 -122 -251 -213 -8 -26 -14 -87 -14 -134 0
-76 4 -93 33 -152 38 -76 91 -127 172 -165 74 -36 193 -37 296 -5 119 38 115
31 112 218 l-3 160 -135 0 -135 0 -3 -67 -3 -68 66 0 66 0 -3 -52 -3 -53 -53
-9 c-98 -17 -203 37 -238 121 -8 18 -14 53 -14 78 0 163 157 253 305 175 54
-29 58 -29 71 -13 7 10 14 21 14 25 0 4 14 23 31 43 l31 35 -86 41 c-97 47
-178 58 -256 35z"/>
<path fill="#eb9929" d="M6863 2706 c-135 -44 -239 -163 -259 -294 -12 -79 22 -197 79 -274
57 -78 199 -135 309 -125 58 5 145 39 199 78 l30 21 -3 146 -3 147 -123 9
c-88 6 -126 5 -136 -3 -19 -16 -30 -109 -15 -127 8 -9 33 -14 75 -14 l64 0 0
-43 0 -43 -63 -13 c-80 -16 -142 -2 -188 42 -91 90 -90 222 4 304 71 63 152
65 237 8 l49 -33 31 48 c17 27 38 51 47 54 19 8 -38 56 -112 93 -61 31 -159
40 -222 19z"/>
<path fill="#eb9929" d="M2791 2693 c-5 -10 -19 -52 -31 -93 -46 -158 -102 -331 -106 -327 -3
2 -16 44 -29 93 -14 49 -42 143 -63 209 l-38 120 -70 0 -69 0 1 -31 c2 -37
179 -589 200 -621 12 -19 23 -23 70 -23 l55 0 18 43 c23 53 96 279 106 325 4
19 11 30 15 25 4 -4 29 -73 55 -153 26 -80 56 -166 67 -192 l20 -46 56 -4 c36
-2 60 1 69 10 7 7 27 59 44 115 17 56 62 197 100 313 38 116 69 218 69 226 0
22 -21 28 -91 28 l-58 0 -31 -102 c-18 -57 -45 -144 -61 -193 -16 -50 -29
-102 -29 -118 0 -35 -18 -35 -26 1 -3 15 -8 36 -10 47 -3 11 -30 98 -61 193
l-57 172 -53 0 c-40 0 -55 -4 -62 -17z"/>
<path fill="#eb9929" d="M4380 2382 c0 -182 3 -337 6 -346 5 -14 30 -16 178 -16 94 0 188 5
209 11 43 12 111 68 133 110 32 64 10 157 -49 204 l-35 28 34 44 c72 94 50
200 -54 261 -46 26 -51 27 -234 31 l-188 3 0 -330z m349 164 c28 -26 26 -57
-5 -87 -22 -21 -37 -24 -108 -27 l-83 -4 -7 47 c-3 26 -6 59 -6 72 l0 25 94
-4 c75 -2 98 -7 115 -22z m16 -271 c29 -28 32 -57 9 -79 -8 -9 -16 -16 -17
-17 -1 -1 -48 -4 -105 -8 l-102 -6 0 68 0 67 95 0 c88 0 98 -2 120 -25z"/>
<path fill="#eb9929" d="M5017 2632 c-4 -45 -3 -201 0 -347 l6 -266 71 3 71 3 3 103 3 102 39
0 c21 0 45 2 52 5 10 4 34 -28 79 -104 l64 -110 77 -1 c42 0 79 4 83 9 3 6
-28 59 -70 120 -41 61 -75 114 -75 119 0 5 11 14 24 20 34 15 75 73 92 129 32
107 -24 223 -131 269 -31 14 -78 19 -211 22 l-171 4 -6 -80z m322 -83 c59 -21
70 -91 22 -140 -28 -28 -34 -29 -115 -29 l-86 0 0 90 0 90 74 0 c40 0 87 -5
105 -11z"/>
<path fill="#eb9929" d="M5656 2694 c-8 -21 -5 -600 3 -639 6 -29 8 -30 72 -33 l66 -3 6 107
c9 136 9 327 0 472 l-6 112 -67 0 c-53 0 -69 -4 -74 -16z"/>
<path fill="#eb9929" d="M5930 2366 l0 -346 118 0 c190 0 289 30 380 113 67 63 102 143 102
238 0 64 -5 85 -30 136 -37 73 -101 135 -178 171 -53 25 -68 27 -224 30 l-168
4 0 -346z m303 183 c77 -21 147 -110 147 -187 0 -47 -46 -124 -87 -145 -40
-21 -99 -35 -162 -39 l-53 -3 -2 193 -2 192 60 0 c34 0 78 -5 99 -11z"/>
<path fill="#eb9929" d="M7325 2693 c-9 -25 6 -645 16 -659 8 -10 416 -9 447 1 8 3 12 26 12
68 l0 64 -134 7 c-73 4 -145 4 -160 0 -26 -6 -26 -6 -26 55 l0 61 130 0 130 0
2 50 c1 28 2 58 2 68 1 15 -14 18 -134 22 l-135 5 -3 63 -3 62 153 0 c84 0
159 4 166 9 9 5 12 27 10 72 l-3 64 -231 3 c-214 2 -232 1 -239 -15z"/>
<path fill="#eb9929" d="M4033 2404 c-9 -4 -13 -30 -13 -80 l0 -75 128 3 127 3 -3 70 c-1 38
-4 70 -5 71 -6 5 -224 12 -234 8z"/>
</g>
</svg>
